<?xml version="1.0" encoding="utf-8"?>
<svg xmlns="http://www.w3.org/2000/svg" fill="none" height="96" viewBox="0 0 96 96" width="96">
<ellipse cx="48.0008" cy="48" fill="#F6F6F6" rx="43.6766" ry="43.6757"/>
<ellipse cx="48" cy="44" fill="#C6C6C6" rx="17" ry="22"/>
<path d="M73.516 85.1892C73.516 85.1892 61.8994 92.1081 47.5695 92.1081C33.2397 92.1081 21.623 85.1892 21.623 85.1892C21.623 73.0091 31.1368 64 47.5695 64C66.1645 64 73.516 73.0091 73.516 85.1892Z" fill="#C6C6C6"/>
<path clip-rule="evenodd" d="M48 96C21.492 96 0 74.5084 0 47.999C0 21.4936 21.492 0 48 0C74.51 0 96 21.4936 96 47.999C96 74.5084 74.508 96 48 96ZM47.9988 90.0009C57.2548 90.0009 65.7368 86.913 72.6788 81.8391C71.4568 79.7672 69.2488 76.4712 65.8768 73.0993C63.3828 70.6053 60.3508 68.1054 57.6588 66.0234C54.7548 67.8634 51.5028 69.0054 47.9988 69.0054C44.4948 69.0054 41.2448 67.8634 38.3408 66.0234C35.6488 68.1054 32.6168 70.6053 30.1228 73.0993C26.7508 76.4732 24.5428 79.7672 23.3208 81.8391C30.2608 86.913 38.7408 90.0009 47.9988 90.0009ZM63.0007 43.5075C63.0007 32.7337 56.2847 24.0039 48.0007 24.0039C39.7167 24.0039 33.0007 32.7337 33.0007 43.5075C33.0007 54.2753 39.7167 63.0031 48.0007 63.0031C56.2847 63.0031 63.0007 54.2753 63.0007 43.5075ZM48.0001 6C24.8041 6 6.00013 24.8056 6.00013 47.9991C6.00013 59.8629 10.9581 70.5267 18.8661 78.1645C19.9661 76.1945 22.1541 72.7546 25.7221 69.1847C28.1661 66.7407 31.1321 64.2768 33.8021 62.1888C29.6441 57.5289 27.0001 50.9151 27.0001 43.5072C27.0001 29.4195 36.4021 18.0037 48.0001 18.0037C59.5981 18.0037 69.0001 29.4195 69.0001 43.5072C69.0001 50.9151 66.3541 57.5289 62.1981 62.1888C64.8681 64.2768 67.8341 66.7407 70.2781 69.1847C73.8481 72.7546 76.0341 76.1945 77.1361 78.1645C85.0421 70.5267 90.0021 59.8609 90.0021 47.9991C90.0001 24.8056 71.1961 6 48.0001 6Z" fill="#9F9FA0" fill-rule="evenodd"/>
</svg>